<svg width="16" height="16" viewBox="0 0 16 16" fill="none" xmlns="http://www.w3.org/2000/svg">
	<path d="M7.99967 12.6665C8.13153 12.6665 8.26042 12.6274 8.37006 12.5542C8.47969 12.4809 8.56514 12.3768 8.61559 12.255C8.66605 12.1331 8.67926 11.9991 8.65353 11.8698C8.62781 11.7405 8.56431 11.6217 8.47108 11.5284C8.37784 11.4352 8.25906 11.3717 8.12973 11.346C8.00041 11.3203 7.86637 11.3335 7.74455 11.3839C7.62273 11.4344 7.51862 11.5198 7.44536 11.6295C7.37211 11.7391 7.33301 11.868 7.33301 11.9998C7.33301 12.1766 7.40325 12.3462 7.52827 12.4712C7.65329 12.5963 7.82286 12.6665 7.99967 12.6665ZM11.333 12.6665C11.4649 12.6665 11.5938 12.6274 11.7034 12.5542C11.813 12.4809 11.8985 12.3768 11.9489 12.255C11.9994 12.1331 12.0126 11.9991 11.9869 11.8698C11.9611 11.7405 11.8976 11.6217 11.8044 11.5284C11.7112 11.4352 11.5924 11.3717 11.4631 11.346C11.3337 11.3203 11.1997 11.3335 11.0779 11.3839C10.9561 11.4344 10.8519 11.5198 10.7787 11.6295C10.7054 11.7391 10.6663 11.868 10.6663 11.9998C10.6663 12.1766 10.7366 12.3462 10.8616 12.4712C10.9866 12.5963 11.1562 12.6665 11.333 12.6665ZM11.333 9.99984C11.4649 9.99984 11.5938 9.96074 11.7034 9.88748C11.813 9.81423 11.8985 9.71011 11.9489 9.58829C11.9994 9.46648 12.0126 9.33243 11.9869 9.20311C11.9611 9.07379 11.8976 8.955 11.8044 8.86177C11.7112 8.76853 11.5924 8.70504 11.4631 8.67931C11.3337 8.65359 11.1997 8.66679 11.0779 8.71725C10.9561 8.76771 10.8519 8.85316 10.7787 8.96279C10.7054 9.07242 10.6663 9.20132 10.6663 9.33317C10.6663 9.50998 10.7366 9.67955 10.8616 9.80457C10.9866 9.9296 11.1562 9.99984 11.333 9.99984ZM7.99967 9.99984C8.13153 9.99984 8.26042 9.96074 8.37006 9.88748C8.47969 9.81423 8.56514 9.71011 8.61559 9.58829C8.66605 9.46648 8.67926 9.33243 8.65353 9.20311C8.62781 9.07379 8.56431 8.955 8.47108 8.86177C8.37784 8.76853 8.25906 8.70504 8.12973 8.67931C8.00041 8.65359 7.86637 8.66679 7.74455 8.71725C7.62273 8.76771 7.51862 8.85316 7.44536 8.96279C7.37211 9.07242 7.33301 9.20132 7.33301 9.33317C7.33301 9.50998 7.40325 9.67955 7.52827 9.80457C7.65329 9.9296 7.82286 9.99984 7.99967 9.99984ZM12.6663 1.99984H11.9997V1.33317C11.9997 1.15636 11.9294 0.98679 11.8044 0.861766C11.6794 0.736742 11.5098 0.666504 11.333 0.666504C11.1562 0.666504 10.9866 0.736742 10.8616 0.861766C10.7366 0.98679 10.6663 1.15636 10.6663 1.33317V1.99984H5.33301V1.33317C5.33301 1.15636 5.26277 0.98679 5.13775 0.861766C5.01272 0.736742 4.84315 0.666504 4.66634 0.666504C4.48953 0.666504 4.31996 0.736742 4.19494 0.861766C4.06991 0.98679 3.99967 1.15636 3.99967 1.33317V1.99984H3.33301C2.80257 1.99984 2.29387 2.21055 1.91879 2.58562C1.54372 2.9607 1.33301 3.4694 1.33301 3.99984V13.3332C1.33301 13.8636 1.54372 14.3723 1.91879 14.7474C2.29387 15.1225 2.80257 15.3332 3.33301 15.3332H12.6663C13.1968 15.3332 13.7055 15.1225 14.0806 14.7474C14.4556 14.3723 14.6663 13.8636 14.6663 13.3332V3.99984C14.6663 3.4694 14.4556 2.9607 14.0806 2.58562C13.7055 2.21055 13.1968 1.99984 12.6663 1.99984ZM13.333 13.3332C13.333 13.51 13.2628 13.6796 13.1377 13.8046C13.0127 13.9296 12.8432 13.9998 12.6663 13.9998H3.33301C3.1562 13.9998 2.98663 13.9296 2.8616 13.8046C2.73658 13.6796 2.66634 13.51 2.66634 13.3332V7.33317H13.333V13.3332ZM13.333 5.99984H2.66634V3.99984C2.66634 3.82303 2.73658 3.65346 2.8616 3.52843C2.98663 3.40341 3.1562 3.33317 3.33301 3.33317H3.99967V3.99984C3.99967 4.17665 4.06991 4.34622 4.19494 4.47124C4.31996 4.59627 4.48953 4.6665 4.66634 4.6665C4.84315 4.6665 5.01272 4.59627 5.13775 4.47124C5.26277 4.34622 5.33301 4.17665 5.33301 3.99984V3.33317H10.6663V3.99984C10.6663 4.17665 10.7366 4.34622 10.8616 4.47124C10.9866 4.59627 11.1562 4.6665 11.333 4.6665C11.5098 4.6665 11.6794 4.59627 11.8044 4.47124C11.9294 4.34622 11.9997 4.17665 11.9997 3.99984V3.33317H12.6663C12.8432 3.33317 13.0127 3.40341 13.1377 3.52843C13.2628 3.65346 13.333 3.82303 13.333 3.99984V5.99984ZM4.66634 9.99984C4.7982 9.99984 4.92709 9.96074 5.03672 9.88748C5.14635 9.81423 5.2318 9.71011 5.28226 9.58829C5.33272 9.46648 5.34592 9.33243 5.3202 9.20311C5.29447 9.07379 5.23098 8.955 5.13775 8.86177C5.04451 8.76853 4.92572 8.70504 4.7964 8.67931C4.66708 8.65359 4.53304 8.66679 4.41122 8.71725C4.2894 8.76771 4.18528 8.85316 4.11203 8.96279C4.03877 9.07242 3.99967 9.20132 3.99967 9.33317C3.99967 9.50998 4.06991 9.67955 4.19494 9.80457C4.31996 9.9296 4.48953 9.99984 4.66634 9.99984ZM4.66634 12.6665C4.7982 12.6665 4.92709 12.6274 5.03672 12.5542C5.14635 12.4809 5.2318 12.3768 5.28226 12.255C5.33272 12.1331 5.34592 11.9991 5.3202 11.8698C5.29447 11.7405 5.23098 11.6217 5.13775 11.5284C5.04451 11.4352 4.92572 11.3717 4.7964 11.346C4.66708 11.3203 4.53304 11.3335 4.41122 11.3839C4.2894 11.4344 4.18528 11.5198 4.11203 11.6295C4.03877 11.7391 3.99967 11.868 3.99967 11.9998C3.99967 12.1766 4.06991 12.3462 4.19494 12.4712C4.31996 12.5963 4.48953 12.6665 4.66634 12.6665Z" fill="#EA252A" />
</svg>
