<svg width="16" height="16" viewBox="0 0 16 16" fill="none" xmlns="http://www.w3.org/2000/svg">
	<path d="M9.99968 7.3335H8.66634V4.66683C8.66634 4.49002 8.59611 4.32045 8.47108 4.19543C8.34606 4.0704 8.17649 4.00016 7.99968 4.00016C7.82287 4.00016 7.6533 4.0704 7.52827 4.19543C7.40325 4.32045 7.33301 4.49002 7.33301 4.66683V8.00016C7.33301 8.17697 7.40325 8.34654 7.52827 8.47157C7.6533 8.59659 7.82287 8.66683 7.99968 8.66683H9.99968C10.1765 8.66683 10.3461 8.59659 10.4711 8.47157C10.5961 8.34654 10.6663 8.17697 10.6663 8.00016C10.6663 7.82335 10.5961 7.65378 10.4711 7.52876C10.3461 7.40373 10.1765 7.3335 9.99968 7.3335ZM7.99968 1.3335C6.68114 1.3335 5.3922 1.72449 4.29588 2.45703C3.19955 3.18957 2.34506 4.23077 1.84048 5.44894C1.3359 6.66711 1.20387 8.00756 1.46111 9.30077C1.71834 10.594 2.35328 11.7819 3.28563 12.7142C4.21798 13.6466 5.40587 14.2815 6.69908 14.5387C7.99228 14.796 9.33273 14.6639 10.5509 14.1594C11.7691 13.6548 12.8103 12.8003 13.5428 11.704C14.2754 10.6076 14.6663 9.31871 14.6663 8.00016C14.6663 7.12468 14.4939 6.25778 14.1589 5.44894C13.8238 4.6401 13.3328 3.90517 12.7137 3.28612C12.0947 2.66706 11.3597 2.176 10.5509 1.84097C9.74206 1.50593 8.87516 1.3335 7.99968 1.3335ZM7.99968 13.3335C6.94484 13.3335 5.9137 13.0207 5.03664 12.4347C4.15957 11.8486 3.47599 11.0157 3.07232 10.0411C2.66865 9.0666 2.56304 7.99425 2.76882 6.95968C2.97461 5.92512 3.48256 4.97481 4.22844 4.22893C4.97432 3.48305 5.92463 2.9751 6.9592 2.76931C7.99376 2.56352 9.06612 2.66914 10.0407 3.07281C11.0152 3.47647 11.8481 4.16006 12.4342 5.03712C13.0202 5.91418 13.333 6.94533 13.333 8.00016C13.333 9.41465 12.7711 10.7712 11.7709 11.7714C10.7707 12.7716 9.41417 13.3335 7.99968 13.3335Z" fill="#EA252A" />
</svg>
