<?xml version="1.0" encoding="UTF-8"?>
<svg xmlns="http://www.w3.org/2000/svg" width="2429" height="1202" viewBox="0 0 2429 1202" fill="none">
  <g clip-path="url(#clip0_131_2)">
    <path d="M677.483 338.599C677.463 405.088 657.893 470.104 621.208 525.555C584.523 581.005 532.343 624.443 471.161 650.463C464.427 653.157 458.232 655.649 451.7 658.006L445.303 660.161C438.57 662.405 431.836 664.426 425.102 666.221C420.321 667.434 415.473 668.578 410.624 669.589L403.285 671.07C400.591 671.676 397.83 672.148 395.07 672.552C388.942 673.629 382.747 674.505 376.552 675.111L370.289 675.717C366.788 676.053 363.556 676.323 359.65 676.525L349.078 676.996C345.778 676.996 342.344 676.996 339.112 676.996H330.628C324.5 676.996 318.372 676.592 312.312 676.053L304.501 675.38C298.777 674.774 293.12 674.101 287.531 673.225C281.942 672.35 276.353 671.407 270.899 670.262C267.061 669.454 263.223 668.646 259.384 667.703C255.546 666.76 252.651 666.019 249.284 665.077L242.55 663.124C189.653 647.348 141.414 618.879 102.033 580.197C62.6525 541.514 33.3239 493.791 16.6011 441.182C-0.121798 388.573 -3.73187 332.673 6.08517 278.35C15.9022 224.027 38.8487 172.927 72.9267 129.5C74.1388 127.817 75.4855 126.2 76.8323 124.651C132.367 56.3206 212.395 12.3886 299.854 2.22242C312.928 0.676369 326.082 -0.0881817 339.247 -0.0672069C401.003 -0.0593885 461.579 16.8506 514.412 48.8303C567.245 80.8101 610.319 126.64 638.966 181.354C641.929 186.943 644.69 192.6 647.383 198.392C648.797 201.557 650.211 204.655 651.558 207.887C654.319 214.621 656.878 220.952 659.167 227.618L661.39 234.353C662.13 236.575 662.804 238.865 663.477 241.087C664.958 245.801 666.305 250.515 667.517 255.364C674.263 282.591 677.611 310.549 677.483 338.599Z" fill="#DB1A20"></path>
    <path d="M667.18 255.296C665.968 250.448 664.622 245.733 663.14 241.019C662.467 238.797 661.793 236.508 661.053 234.285L658.831 227.551C656.541 220.817 653.982 214.082 651.222 207.82C649.875 204.587 648.461 201.489 647.047 198.324C625.441 151.385 593.403 109.998 553.376 77.3207C513.349 44.6432 466.39 21.5373 416.079 9.76467C403.756 6.80159 391.231 4.44464 378.774 2.0203C365.544 0.451566 352.233 -0.335506 338.91 -0.336738C325.745 -0.357713 312.591 0.406838 299.517 1.95289C285.242 4.78128 270.899 7.54235 256.758 10.9095C186.059 28.4256 122.863 68.2066 76.4955 124.382C75.1487 125.931 73.8019 127.547 72.5899 129.231C33.3351 177.464 8.56175 235.841 1.14473 297.587C1.10077 301.943 0.718048 306.288 0 310.585V366.479C1.04758 370.226 1.76854 374.056 2.1548 377.927C9.88941 443.69 36.7614 505.734 79.4365 556.362C122.112 606.989 178.711 643.971 242.213 662.72L248.947 664.673C252.269 665.615 255.636 666.491 259.048 667.299C262.886 668.242 266.724 669.05 270.562 669.858C276.017 671.003 281.606 671.946 287.195 672.821C292.784 673.696 298.44 674.37 304.164 674.976L311.975 675.649C318.035 676.188 324.163 676.457 330.291 676.592C336.418 676.727 342.546 676.592 348.741 676.592L359.313 676.121C362.882 676.121 366.451 675.649 369.953 675.313L376.215 674.707L380.659 674.168C385.373 673.562 390.086 672.888 394.733 672.148C397.494 671.743 400.254 671.272 402.948 670.666L410.288 669.184C415.136 668.174 419.984 667.029 424.765 665.817C431.634 664.021 438.367 662.001 444.967 659.756L451.364 657.601C458.097 655.379 464.427 652.82 470.824 650.059C528.326 625.917 578.012 586.307 614.362 535.629C650.713 484.951 672.306 425.188 676.742 362.977C679.273 326.804 676.045 290.458 667.18 255.296ZM441.33 517.933C432.644 518.269 423.89 517.933 415.136 517.933C371.434 516.923 374.733 526.418 356.956 476.113C339.179 425.808 350.223 427.357 289.282 427.559C264.233 427.559 239.183 427.559 214.133 427.559C199.117 427.559 188.882 432.273 184.37 448.233C179.455 465.54 171.711 481.904 166.256 499.077C164.87 505.094 161.299 510.383 156.235 513.916C151.171 517.45 144.976 518.977 138.85 518.202C123.16 517.798 107.403 517.865 91.7138 518.202C76.0241 518.539 72.9939 510.323 76.8995 497.999C80.805 485.676 85.9227 474.093 90.367 462.173C130.77 354.425 172.115 247.08 212.181 139.265C218.914 121.217 228.409 112.328 248.072 114.483C262.002 115.796 276.025 115.796 289.955 114.483C307.598 112.866 316.15 120.476 322.076 136.638C361.199 242.905 401.13 348.97 440.724 455.102C446.044 469.244 451.768 483.251 456.414 497.595C461.06 511.939 457.155 517.057 441.33 517.865V517.933ZM484.898 139.938C484.898 117.648 487.793 114.819 510.082 114.752C524.088 114.752 538.094 115.358 552.033 114.752C568.194 113.809 573.985 121.486 573.851 136.638C573.851 168.626 573.851 200.681 573.851 232.669C573.851 319.496 573.851 406.256 573.851 492.949C573.851 514.97 570.147 518.606 548.666 518.471C535.199 518.471 521.731 518.471 508.264 518.471C488.063 518.135 484.696 514.633 484.696 494.969C484.696 435.618 484.696 376.244 484.696 316.847C484.83 257.721 484.898 198.751 484.898 139.938Z" fill="#DB1A20"></path>
    <path d="M1111.54 407.693C1111.54 361.159 1111.88 314.558 1111.54 267.957C1111.54 251.39 1118.28 244.387 1134.37 245.195C1144.26 245.7 1154.17 245.7 1164.06 245.195C1179.55 244.319 1190.53 247.215 1194.5 265.398C1198 281.695 1208.44 272.873 1215.24 267.014C1227.58 256.339 1241.94 248.248 1257.46 243.216C1272.98 238.184 1289.35 236.316 1305.61 237.72C1333.62 239.403 1358.27 248.023 1376.45 269.842C1387.29 282.907 1396.11 282.57 1408.1 271.324C1426.75 253.543 1450.39 241.877 1475.85 237.882C1501.31 233.887 1527.38 237.754 1550.58 248.966C1590.51 267.889 1605.6 302.84 1606.47 344.458C1607.75 410.79 1607.15 477.19 1606.88 543.523C1606.88 564.938 1602.23 568.709 1580.75 568.911C1567.28 568.911 1553.81 568.911 1540.35 568.574C1526.88 568.238 1520.15 561.84 1520.15 546.823C1520.48 489.784 1520.15 432.744 1519.54 375.705C1519.4 368.146 1518.73 360.607 1517.52 353.145C1513.28 323.178 1496.44 306.746 1467.49 304.187C1454.31 303.057 1441.16 306.621 1430.35 314.248C1419.55 321.875 1411.78 333.076 1408.43 345.872C1404.24 363.395 1401.98 381.326 1401.7 399.342C1400.82 447.694 1401.36 495.979 1401.16 544.331C1401.16 564.938 1397.79 568.305 1376.72 568.844C1365.07 569.181 1353.42 568.844 1341.84 568.844C1319.48 568.507 1315.3 564.938 1314.9 541.907C1314.36 483.723 1314.9 425.538 1314.16 367.287C1313.82 326.881 1298.2 307.487 1263.93 304.726C1248.35 303.699 1232.98 308.821 1221.14 318.995C1209.29 329.168 1201.9 343.58 1200.56 359.139C1198 389.866 1196.99 420.703 1197.53 451.533C1197.06 482.376 1196.99 513.219 1197.53 544.062C1197.87 561.032 1190.46 568.777 1173.63 568.507C1159.69 568.507 1145.75 568.507 1131.74 568.507C1117.74 568.507 1110.73 562.514 1111 547.159C1111.68 500.558 1111 454.024 1111 407.423L1111.54 407.693Z" fill="#DB1A20"></path>
    <path d="M745.023 422.777H755.527C789.735 422.777 787.647 422.777 796.401 450.388C799.593 460.442 805.01 469.648 812.25 477.32C819.489 484.991 828.366 490.932 838.218 494.699C855.312 502.176 873.767 506.036 892.425 506.036C911.082 506.036 929.537 502.176 946.631 494.699C966.833 486.484 979.088 471.87 979.694 449.647C980.182 439.604 977.336 429.682 971.6 421.424C965.864 413.166 957.559 407.037 947.978 403.989C915.925 392.002 882.661 383.786 850.137 372.944C825.574 366.024 801.521 357.406 778.153 347.152C704.082 311.191 690.951 215.968 750.208 158.592C776.456 133.372 810.465 117.778 846.703 114.348C896.6 108.354 945.621 111.519 990.872 136.436C1008.41 145.807 1023.54 159.11 1035.08 175.302C1046.62 191.494 1054.26 210.137 1057.4 229.773C1060.16 244.117 1055.04 252.602 1039.76 252.939C1021.19 254.152 1002.57 254.152 984.004 252.939C979.767 251.93 975.801 250.01 972.382 247.312C968.963 244.613 966.173 241.202 964.206 237.316C942.456 189.368 875.388 168.828 830.07 197.314C822.501 201.801 816.339 208.316 812.281 216.123C808.223 223.931 806.431 232.718 807.108 241.491C807.385 249.495 810.263 257.191 815.305 263.412C820.348 269.634 827.28 274.042 835.053 275.97C872.089 287.621 909.932 297.116 946.901 308.968C970.846 315.524 994.045 324.551 1016.12 335.905C1100.7 384.257 1084.47 502.309 1016.12 546.89C943.736 594.03 812.091 588.912 746.1 533.421C720.022 511.39 703.372 480.207 699.57 446.28C697.213 428.771 701.455 423.855 718.626 423.181C727.313 422.777 736.067 423.181 744.821 423.181L745.023 422.777Z" fill="#DB1A20"></path>
    <path d="M618.765 586.757C665.295 606.96 711.152 629.52 758.49 648.039C878.822 695.179 1004.07 722.52 1132.08 738.615C1256.97 754.015 1383 758.162 1508.63 751.006C1700.96 740.921 1891.62 709.895 2077.23 658.477C2191.7 626.826 2303.55 588.171 2416.61 552.614C2420.52 550.974 2424.83 550.506 2429 551.268C2424.35 553.759 2419.91 556.52 2415.2 558.81C2210.15 660.7 1997.23 740.299 1772.05 784.408C1607.95 816.531 1442.51 829.056 1275.31 814.241C1067.3 795.789 871.281 740.164 690.21 633.897C665.497 619.418 641.794 603.054 617.62 587.565L618.765 586.757Z" fill="#DB1A20"></path>
    <path d="M2140.93 426.414C2110.09 426.414 2079.18 426.077 2048.34 426.414C2026.32 426.414 2020.4 435.034 2025.85 456.247C2032.99 483.857 2048.95 503.387 2077.63 509.044C2109.42 515.441 2139.31 511.401 2163.35 487.157C2179.58 470.793 2215.88 462.645 2237.02 471.601C2248.4 476.382 2244.16 485.07 2240.99 491.804C2233.44 509.17 2222.36 524.774 2208.45 537.62C2194.53 550.467 2178.1 560.275 2160.19 566.42C2091.71 591.606 2009.49 569.517 1966.53 513.084C1927 461.096 1917.37 353.482 1981.47 285.399C2008.01 258.475 2043.03 241.539 2080.61 237.453C2118.19 233.367 2156.03 242.382 2187.73 262.973C2239.98 297.992 2255.67 351.933 2256.55 411.599C2256.55 423.99 2246.99 426.145 2236.89 426.145H2140.93V426.414ZM2094.47 373.483C2111.91 373.483 2129.42 374.291 2146.79 373.483C2164.16 372.675 2169.01 364.661 2163.49 347.825C2159.02 333.838 2150.13 321.68 2138.15 313.179C2126.18 304.678 2111.77 300.294 2097.09 300.685C2082.48 300.378 2068.11 304.454 2055.83 312.387C2043.55 320.32 2033.93 331.748 2028.21 345.199C2021.47 363.045 2026.93 372.136 2045.65 373.483C2061.88 374.156 2078.24 373.483 2094.47 373.483Z" fill="#DB1A20"></path>
    <path d="M1810.24 343.919C1810.24 278.148 1810.24 212.332 1810.24 146.47C1810.24 124.18 1812.93 121.352 1835.29 121.15C1849.83 121.15 1864.37 121.621 1878.92 121.756C1881.26 121.524 1883.63 121.816 1885.85 122.611C1888.07 123.407 1890.08 124.686 1891.74 126.355C1893.41 128.025 1894.68 130.043 1895.46 132.264C1896.25 134.485 1896.53 136.853 1896.29 139.197C1896.29 145.932 1896.29 153.137 1896.29 160.141V541.099C1896.29 563.793 1890.97 569.046 1868.68 568.709C1856.5 568.709 1844.24 568.709 1831.99 568.171C1816.9 568.171 1809.29 562.11 1809.49 544.87C1810.37 477.931 1809.83 410.925 1809.83 343.919H1810.24Z" fill="#DB1A20"></path>
    <path d="M1663.64 406.548C1663.64 360.553 1663.64 314.558 1663.64 268.563C1663.64 248.764 1667.14 245.531 1687.21 245.262C1700.68 245.262 1714.14 245.666 1727.61 245.262C1743.37 244.521 1749.97 251.996 1749.97 267.081C1749.97 290.988 1749.97 314.827 1749.97 338.734C1749.97 405.672 1749.97 472.634 1749.97 539.617C1749.97 565.005 1745.79 568.776 1720.41 568.642C1709.36 568.642 1698.32 568.642 1687.28 568.642C1670.71 569.046 1663.17 562.581 1663.51 544.802C1664.45 498.807 1663.84 452.812 1663.84 406.75L1663.64 406.548Z" fill="#DB1A20"></path>
    <path d="M1706.87 191.523C1662.56 191.523 1662.56 191.523 1663.51 147.615C1664.05 123.237 1666.07 121.217 1690.98 121.082C1703.17 121.082 1715.42 121.082 1727.61 121.486C1732.19 121.486 1738.25 121.486 1741.08 123.843C1757.44 138.861 1748.49 158.727 1749.16 176.438C1749.63 189.3 1738.18 191.119 1727.75 191.455C1720.88 191.725 1713.87 191.523 1706.87 191.523Z" fill="#DB1A20"></path>
    <path d="M415.136 517.933C371.366 516.923 374.733 526.418 356.956 476.113C339.179 425.808 350.223 427.357 289.215 427.559C264.165 427.559 239.116 427.559 214.066 427.559C199.05 427.559 188.882 432.273 184.303 448.233C179.454 465.54 171.711 481.904 166.256 499.077C164.87 505.094 161.299 510.383 156.235 513.916C151.171 517.45 144.976 518.977 138.85 518.202C123.16 517.798 107.403 517.866 91.7137 518.202C76.0241 518.539 72.9938 510.323 76.8321 497.999C80.6703 485.676 85.9226 474.093 90.2996 462.173C130.702 354.425 172.047 247.08 212.113 139.265C218.847 121.217 228.342 112.328 248.004 114.483C261.935 115.796 275.958 115.796 289.888 114.483C307.463 112.866 316.082 120.476 322.008 136.638C361.131 242.905 400.995 348.97 440.657 455.102C445.977 469.244 451.7 483.251 456.347 497.595C460.993 511.939 457.222 517.798 441.196 518.404C432.576 518.202 423.89 517.933 415.136 517.933ZM268.811 228.359C265.647 230.043 264.03 230.379 263.694 231.188C249.216 270.044 234.604 308.834 221.069 348.095C220.261 350.452 228.476 359.206 232.92 359.543C251.977 361.024 271.168 360.755 290.292 360.553C312.783 360.553 315.342 357.388 308.473 336.242C298.103 304.389 286.791 272.805 275.612 241.154C273.594 236.702 271.253 232.403 268.609 228.292L268.811 228.359Z" fill="white"></path>
    <path d="M484.83 316.309C484.83 257.541 484.83 198.728 484.83 139.871C484.83 117.58 487.659 114.752 510.015 114.617C524.021 114.617 538.027 115.291 551.899 114.617C568.127 113.675 573.918 121.352 573.783 136.504C573.783 168.491 573.783 200.547 573.783 232.534C573.783 319.272 573.783 406.032 573.783 492.814C573.783 514.835 570.147 518.472 548.666 518.337C535.199 518.337 521.731 518.337 508.264 518.337C488.399 518 484.763 514.498 484.763 494.834C484.763 435.483 484.763 376.109 484.763 316.713L484.83 316.309Z" fill="white"></path>
    <path d="M268.609 228.292C271.158 232.39 273.408 236.666 275.343 241.087C286.521 272.738 297.834 304.322 308.204 336.175C314.938 357.32 312.513 360.283 290.023 360.486C270.899 360.486 251.708 360.957 232.651 359.475C228.207 359.475 219.992 350.384 220.8 348.027C234.267 308.766 248.947 269.977 263.424 231.12C264.03 230.312 265.646 229.975 268.609 228.292Z" fill="#DB1A20"></path>
    <path d="M41.5472 952.293C59.0419 949.631 76.7111 948.28 94.4071 948.252C130.096 948.252 155.55 956.536 172.384 972.294C189.218 988.052 199.319 1010.27 199.319 1041.39C199.319 1072.5 189.555 1098.56 171.576 1116.27C153.597 1133.98 123.834 1144.02 86.394 1144.02C71.3244 1144.1 56.2621 1143.33 41.2778 1141.73L41.5472 952.293ZM66.5968 1122.6C74.9402 1123.75 83.3619 1124.22 91.781 1124.02C144.91 1124.02 173.731 1094.32 173.731 1042.26C174.068 996.874 148.345 968.186 95.7539 968.186C85.9729 968.038 76.2025 968.895 66.5968 970.745V1122.6Z" fill="#7F8080"></path>
    <path d="M258.98 965.155C258.98 969.281 257.341 973.238 254.424 976.155C251.507 979.073 247.551 980.712 243.425 980.712C239.3 980.712 235.343 979.073 232.426 976.155C229.509 973.238 227.87 969.281 227.87 965.155C227.805 963.074 228.166 961.001 228.931 959.065C229.695 957.128 230.848 955.368 232.317 953.892C233.786 952.417 235.541 951.257 237.474 950.484C239.408 949.711 241.479 949.341 243.56 949.397C245.632 949.329 247.696 949.692 249.62 950.464C251.545 951.237 253.287 952.401 254.738 953.883C256.188 955.365 257.314 957.132 258.044 959.073C258.775 961.014 259.093 963.085 258.98 965.155ZM230.968 1142.27V1004.01H256.152V1142.27H230.968Z" fill="#7F8080"></path>
    <path d="M416.752 1004.01C416.146 1013.98 415.607 1025.16 415.607 1041.99V1122.27C415.607 1153.98 409.277 1173.45 395.877 1185.43C382.477 1197.42 363.017 1202 345.576 1202C329.501 1202.41 313.612 1198.48 299.585 1190.62L305.847 1171.43C318.076 1178.65 332.046 1182.4 346.25 1182.27C371.972 1182.27 390.827 1168.8 390.827 1133.98V1118.56H390.221C385.601 1125.97 379.094 1132.02 371.368 1136.09C363.642 1140.16 354.974 1142.11 346.25 1141.73C311.975 1141.73 287.396 1112.57 287.396 1074.39C287.396 1027.58 317.968 1000.98 349.684 1000.98C358.402 1000.47 367.085 1002.46 374.716 1006.7C382.348 1010.95 388.614 1017.28 392.78 1024.96H393.386L394.531 1004.15L416.752 1004.01ZM390.692 1058.56C390.842 1054.69 390.365 1050.83 389.278 1047.11C387.148 1039.44 382.551 1032.69 376.197 1027.89C369.844 1023.09 362.088 1020.52 354.128 1020.58C330.156 1020.58 312.985 1040.78 312.985 1072.84C312.985 1099.77 326.452 1122.6 353.859 1122.6C361.643 1122.54 369.208 1120.02 375.473 1115.4C381.738 1110.78 386.382 1104.3 388.74 1096.88C390.079 1092.52 390.738 1087.97 390.692 1083.41V1058.56Z" fill="#7F8080"></path>
    <path d="M484.089 965.156C483.829 969.113 482.074 972.824 479.179 975.535C476.284 978.246 472.467 979.754 468.501 979.754C464.535 979.754 460.718 978.246 457.823 975.535C454.928 972.824 453.172 969.113 452.912 965.156C452.857 963.077 453.225 961.009 453.993 959.076C454.761 957.144 455.913 955.388 457.38 953.914C458.847 952.441 460.599 951.281 462.528 950.504C464.457 949.728 466.523 949.351 468.602 949.398C470.677 949.33 472.744 949.693 474.671 950.465C476.599 951.236 478.346 952.399 479.801 953.88C481.257 955.361 482.389 957.127 483.127 959.068C483.865 961.009 484.193 963.082 484.089 965.156ZM456.077 1142.27V1004.01H481.194V1142.27H456.077Z" fill="#7F8080"></path>
    <path d="M552.976 964.28V1004.01H589.002V1023.14H552.976V1097.69C552.976 1114.86 557.892 1124.62 571.83 1124.62C576.754 1124.71 581.668 1124.14 586.443 1122.94L587.587 1141.8C580.435 1144.31 572.877 1145.48 565.299 1145.23C560.313 1145.51 555.326 1144.71 550.678 1142.88C546.03 1141.06 541.83 1138.25 538.364 1134.66C531.226 1127.25 528.6 1114.93 528.6 1098.63V1023.21H506.984V1004.08H528.398V970.88L552.976 964.28Z" fill="#7F8080"></path>
    <path d="M693.846 1142.27L691.893 1124.89H691.018C686.101 1131.42 679.702 1136.69 672.35 1140.26C664.997 1143.83 656.902 1145.6 648.73 1145.43C620.717 1145.43 606.442 1125.7 606.442 1105.7C606.442 1072.03 636.138 1053.98 689.604 1054.25V1051.42C689.604 1039.97 686.439 1019.43 658.157 1019.43C645.435 1019.46 632.969 1023.01 622.132 1029.67L616.408 1013.1C630.127 1004.88 645.866 1000.63 661.861 1000.85C704.149 1000.85 714.451 1029.67 714.451 1057.41V1109.13C714.251 1120.22 715.017 1131.31 716.741 1142.27H693.846ZM690.143 1071.69C662.736 1071.15 631.559 1076 631.559 1102.87C631.299 1106.06 631.731 1109.27 632.827 1112.28C633.922 1115.29 635.654 1118.03 637.905 1120.3C640.156 1122.58 642.872 1124.34 645.868 1125.47C648.864 1126.6 652.068 1127.07 655.262 1126.85C662.606 1127.1 669.841 1125 675.901 1120.84C681.962 1116.69 686.528 1110.69 688.93 1103.75C689.817 1101.17 690.295 1098.46 690.345 1095.73L690.143 1071.69Z" fill="#7F8080"></path>
    <path d="M754.988 939.431H780.375V1142.27H755.19L754.988 939.431Z" fill="#7F8080"></path>
    <path d="M1018.48 1136C1002.35 1142.62 984.999 1145.74 967.573 1145.16C913.299 1145.16 872.425 1110.88 872.425 1047.72C872.425 987.446 913.299 946.703 973.028 946.703C988.72 946.048 1004.36 948.973 1018.75 955.256L1012.76 975.459C1000.56 969.947 987.288 967.21 973.903 967.445C928.72 967.445 898.754 996.335 898.754 1046.91C898.754 1094.05 925.689 1124.35 972.826 1124.35C986.705 1124.54 1000.47 1121.81 1013.23 1116.34L1018.48 1136Z" fill="#7F8080"></path>
    <path d="M1048.71 939.431H1073.9V1142.27H1048.71V939.431Z" fill="#7F8080"></path>
    <path d="M1130.53 1077.69C1131.07 1111.69 1152.82 1125.7 1177.67 1125.7C1190.8 1126.13 1203.88 1123.7 1215.98 1118.56L1220.22 1136.61C1205.66 1142.66 1189.99 1145.57 1174.23 1145.16C1131.67 1145.16 1106.22 1117.15 1106.22 1075.4C1106.22 1033.64 1130.53 1000.85 1170.93 1000.85C1216.12 1000.85 1228.1 1040.58 1228.1 1065.97C1228.08 1069.89 1227.79 1073.8 1227.23 1077.69H1130.53ZM1204.2 1059.7C1204.53 1043.68 1197.46 1018.83 1169.38 1018.83C1143.93 1018.83 1132.82 1042.26 1130.8 1059.7H1204.2Z" fill="#7F8080"></path>
    <path d="M1335.91 1142.27L1333.89 1124.89H1333.01C1328.1 1131.43 1321.71 1136.7 1314.35 1140.28C1307 1143.85 1298.9 1145.62 1290.73 1145.43C1262.71 1145.43 1248.44 1125.7 1248.44 1105.7C1248.44 1072.03 1278.2 1053.98 1331.6 1054.25V1051.42C1331.6 1039.97 1328.43 1019.43 1300.15 1019.43C1287.45 1019.47 1275.01 1023.01 1264.19 1029.67L1258.47 1013.1C1272.19 1004.88 1287.93 1000.63 1303.92 1000.85C1346.21 1000.85 1356.45 1029.67 1356.45 1057.41V1109.13C1356.28 1120.22 1357.05 1131.31 1358.74 1142.27H1335.91ZM1332.54 1071.69C1305.07 1071.15 1273.96 1076 1273.96 1102.87C1273.7 1106.06 1274.13 1109.27 1275.23 1112.28C1276.32 1115.29 1278.05 1118.03 1280.31 1120.3C1282.56 1122.58 1285.27 1124.34 1288.27 1125.47C1291.26 1126.6 1294.47 1127.07 1297.66 1126.85C1305.01 1127.1 1312.24 1125 1318.3 1120.84C1324.36 1116.69 1328.93 1110.69 1331.33 1103.75C1332.24 1101.17 1332.74 1098.47 1332.81 1095.73L1332.54 1071.69Z" fill="#7F8080"></path>
    <path d="M1397.05 1047.11C1397.05 1030.88 1397.05 1016.87 1395.91 1004.01H1417.93L1418.73 1030.95H1420.08C1422.46 1022.5 1427.44 1015.03 1434.33 1009.58C1441.21 1004.14 1449.63 1001.01 1458.4 1000.65C1460.8 1000.6 1463.21 1000.9 1465.53 1001.52V1025.23C1462.73 1024.59 1459.86 1024.29 1456.98 1024.35C1439.27 1024.35 1426.68 1037.82 1423.31 1056.67C1422.59 1060.54 1422.21 1064.46 1422.17 1068.39V1142.07H1397.32L1397.05 1047.11Z" fill="#7F8080"></path>
    <path d="M1583.04 1081.73L1562.84 1142.33H1537.11L1602.57 949.734H1632.53L1698.25 1142.33H1671.92L1651.32 1081.73H1583.04ZM1646.2 1062.26L1627.35 1006.84C1623.04 994.248 1620.21 982.867 1617.31 971.688H1616.77C1613.88 983.136 1610.78 994.854 1607.08 1006.57L1588.43 1062.53L1646.2 1062.26Z" fill="#7F8080"></path>
    <path d="M1725.05 939.431H1750.04V1142.27H1724.92L1725.05 939.431Z" fill="#7F8080"></path>
    <path d="M1820.47 965.155C1820.47 969.281 1818.83 973.238 1815.91 976.155C1813 979.073 1809.04 980.712 1804.92 980.712C1800.79 980.712 1796.83 979.073 1793.92 976.155C1791 973.238 1789.36 969.281 1789.36 965.155C1789.3 963.074 1789.66 961.001 1790.42 959.065C1791.19 957.128 1792.34 955.368 1793.81 953.892C1795.28 952.417 1797.03 951.257 1798.97 950.484C1800.9 949.711 1802.97 949.341 1805.05 949.397C1807.12 949.329 1809.19 949.692 1811.11 950.464C1813.04 951.237 1814.78 952.401 1816.23 953.883C1817.68 955.365 1818.8 957.132 1819.54 959.073C1820.27 961.014 1820.58 963.085 1820.47 965.155ZM1792.46 1142.27V1004.01H1817.37V1142.27H1792.46Z" fill="#7F8080"></path>
    <path d="M1978.51 1004.01C1977.91 1013.98 1977.37 1025.16 1977.37 1041.99V1122.27C1977.37 1153.98 1971.1 1173.45 1957.64 1185.43C1944.17 1197.42 1924.78 1202 1907.34 1202C1891.26 1202.4 1875.38 1198.47 1861.34 1190.62L1867.61 1171.43C1879.84 1178.65 1893.81 1182.4 1908.01 1182.27C1933.73 1182.27 1952.59 1168.8 1952.59 1133.98V1118.56H1952.05C1947.43 1125.97 1940.92 1132.02 1933.2 1136.09C1925.47 1140.16 1916.8 1142.11 1908.08 1141.73C1873.8 1141.73 1849.22 1112.57 1849.22 1074.39C1849.22 1027.58 1879.79 1000.98 1911.51 1000.98C1920.24 1000.48 1928.93 1002.46 1936.57 1006.71C1944.21 1010.95 1950.49 1017.28 1954.67 1024.96H1955.21L1956.36 1004.15L1978.51 1004.01ZM1952.52 1058.56C1952.65 1054.69 1952.15 1050.82 1951.04 1047.11C1948.93 1039.44 1944.35 1032.68 1938 1027.88C1931.66 1023.08 1923.91 1020.52 1915.96 1020.58C1891.92 1020.58 1874.81 1040.78 1874.81 1072.84C1874.81 1099.77 1888.28 1122.6 1915.62 1122.6C1923.4 1122.54 1930.97 1120.02 1937.23 1115.4C1943.5 1110.78 1948.14 1104.3 1950.5 1096.88C1951.86 1092.52 1952.54 1087.98 1952.52 1083.41V1058.56Z" fill="#7F8080"></path>
    <path d="M2017.37 1041.39C2017.37 1027.11 2017.37 1015.39 2016.22 1004.01H2038.51L2039.92 1026.84H2040.53C2045.05 1018.75 2051.7 1012.04 2059.76 1007.46C2067.82 1002.88 2076.98 1000.59 2086.25 1000.85C2105.38 1000.85 2135.07 1012.3 2135.07 1059.7V1142.27H2109.95V1062.53C2109.95 1040.31 2101.67 1021.72 2077.9 1021.72C2068.29 1022.14 2059.22 1026.28 2052.61 1033.27C2046 1040.26 2042.37 1049.55 2042.48 1059.17V1142.27H2017.37V1041.39Z" fill="#7F8080"></path>
    <path d="M2189.95 1077.69C2190.49 1111.69 2212.24 1125.7 2237.09 1125.7C2250.23 1126.14 2263.3 1123.7 2275.4 1118.56L2279.65 1136.61C2265.09 1142.66 2249.42 1145.57 2233.65 1145.16C2191.1 1145.16 2165.64 1117.15 2165.64 1075.4C2165.64 1033.64 2190.22 1000.85 2230.56 1000.85C2275.67 1000.85 2287.66 1040.58 2287.66 1065.97C2287.62 1069.89 2287.35 1073.8 2286.85 1077.69H2189.95ZM2263.69 1059.7C2263.69 1043.68 2256.95 1018.83 2228.81 1018.83C2203.35 1018.83 2192.24 1042.26 2190.22 1059.7H2263.69Z" fill="#7F8080"></path>
    <path d="M2319.11 1047.11C2319.11 1030.88 2318.77 1016.87 2317.96 1004.01H2339.98L2340.79 1030.95H2341.93C2344.3 1022.5 2349.28 1015.02 2356.17 1009.57C2363.05 1004.13 2371.48 1001 2380.25 1000.65C2382.66 1000.6 2385.06 1000.9 2387.39 1001.52V1025.23C2384.58 1024.59 2381.71 1024.3 2378.83 1024.35C2361.12 1024.35 2348.53 1037.82 2345.16 1056.67C2344.44 1060.54 2344.06 1064.46 2344.02 1068.39V1142.07H2319.17L2319.11 1047.11Z" fill="#7F8080"></path>
  </g>
  <defs>
    <clipPath id="clip0_131_2">
      <rect width="2429" height="1202" fill="white"></rect>
    </clipPath>
  </defs>
</svg>
