<svg width="72" height="72" viewBox="0 0 72 72" fill="none" xmlns="http://www.w3.org/2000/svg">
	<g filter="url(#filter0_d_2802_36446)">
		<path d="M36 64C41.8333 63.9167 47.1667 62.5 52 59.75C56.8333 56.9167 60.75 53 63.75 48C66.5833 42.9167 68 37.5833 68 32C68 26.4167 66.5833 21.0833 63.75 16C60.75 11 56.8333 7.08333 52 4.25C47.1667 1.5 41.8333 0.0833333 36 0C30.1667 0.0833333 24.8333 1.5 20 4.25C15.1667 7.08333 11.25 11 8.25 16C5.41667 21.0833 4 26.4167 4 32C4 37.5833 5.41667 42.9167 8.25 48C11.25 53 15.1667 56.9167 20 59.75C24.8333 62.5 30.1667 63.9167 36 64ZM52 32L26 48V16L52 32Z" fill="#FFFFF5" />
	</g>
	<defs>
		<filter id="filter0_d_2802_36446" x="0" y="0" width="72" height="72" filterUnits="userSpaceOnUse" color-interpolation-filters="sRGB">
			<feFlood flood-opacity="0" result="BackgroundImageFix" />
			<feColorMatrix in="SourceAlpha" type="matrix" values="0 0 0 0 0 0 0 0 0 0 0 0 0 0 0 0 0 0 127 0" result="hardAlpha" />
			<feOffset dy="4" />
			<feGaussianBlur stdDeviation="2" />
			<feComposite in2="hardAlpha" operator="out" />
			<feColorMatrix type="matrix" values="0 0 0 0 0 0 0 0 0 0 0 0 0 0 0 0 0 0 0.25 0" />
			<feBlend mode="normal" in2="BackgroundImageFix" result="effect1_dropShadow_2802_36446" />
			<feBlend mode="normal" in="SourceGraphic" in2="effect1_dropShadow_2802_36446" result="shape" />
		</filter>
	</defs>
</svg>
